<svg width="800px" height="800px" viewBox="0 0 32 32" version="1.1" xmlns="http://www.w3.org/2000/svg">
 <defs>
    <linearGradient id="grad1" x1="0%" y1="0%" x2="100%" y2="0%">
      <stop offset="0%" style="stop-color:rgb(119, 46, 195);stop-opacity:1" />
      <stop offset="100%" style="stop-color:rgb(58, 18, 153);stop-opacity:1" />
    </linearGradient>
  </defs>
  <ellipse cx="200" cy="70" rx="85" ry="55" fill="url(#grad1)" />
<title>flames</title>
<path d="M14.669 1.114l-0 0h0zM24.286 7.865c1.495 3.505 0.722 6.2-1.135 7.702 0.913-11.962-12.262-7.142-8.481-14.453-10.867 3.016 0.897 9.079-3.143 11.255-2.046 1.102-5.368 0.938-4.035-4.611-7.259 5.901-4.301 20.029 5.237 22.699-2.618-1.369-4.405-4.111-4.405-7.27 0-4.529 3.671-8.199 8.199-8.199s8.199 3.671 8.199 8.199c0 2.842-1.446 5.345-3.641 6.816 11.398-3.958 9.844-18.564 3.206-22.138zM13.888 22.561c0 0.882 0.715 1.598 1.598 1.598s1.598-0.715 1.598-1.598-0.715-1.598-1.598-1.598c-0.882 0-1.598 0.715-1.598 1.598zM16.523 19.509c-2.616 0-4.737 2.121-4.737 4.737s2.121 4.737 4.737 4.737c2.616 0 4.737-2.121 4.737-4.737s-2.121-4.737-4.737-4.737zM16.522 27.233c-1.65 0-2.988-1.338-2.988-2.988 0-0.524 0.135-1.017 0.373-1.445-0.012-0.078-0.018-0.157-0.018-0.239 0-0.882 0.715-1.598 1.598-1.598 0.345 0 0.664 0.11 0.925 0.296 0.037-0.001 0.073-0.003 0.11-0.003 1.65 0 2.988 1.338 2.988 2.988s-1.338 2.988-2.988 2.988z"></path>
</svg>